<svg xmlns="http://www.w3.org/2000/svg" version="1.1" xmlns:xlink="http://www.w3.org/1999/xlink" width="1000" height="1000"><g clip-path="url(#SvgjsClipPath1003)"><rect width="1000" height="1000" fill="#ffffff"></rect><g transform="matrix(3.5,0,0,3.5,150,150)"><svg xmlns="http://www.w3.org/2000/svg" version="1.1" xmlns:xlink="http://www.w3.org/1999/xlink" width="200" height="200"><svg xmlns="http://www.w3.org/2000/svg" version="1.1" xmlns:xlink="http://www.w3.org/1999/xlink" viewBox="0 0 200 200"><rect width="200" height="200" fill="url('#gradient')"></rect><defs><linearGradient id="gradient" gradientTransform="rotate(45 0.5 0.5)"><stop offset="0%" stop-color="#ff8906"></stop><stop offset="100%" stop-color="#e53170"></stop></linearGradient><clipPath id="SvgjsClipPath1003"><rect width="1000" height="1000" x="0" y="0" rx="350" ry="350"></rect></clipPath></defs><g><g fill="#0f0e17" transform="matrix(5.965048543689321,0,0,5.965048543689321,8.76661354343868,142.41087080853657)" stroke="#83be5a" stroke-width="0"><path d="M10.11-14.22L12.09-5.30L13.72-14.22L17.12-14.22L14.10 0L10.55 0L8.64-8.11L6.78 0L3.23 0L0.21-14.22L3.61-14.22L5.24-5.30L7.20-14.22L10.11-14.22ZM26.32 0L23.29-5.29L21.88-3.75L21.88 0L18.46 0L18.46-14.22L21.88-14.22L21.88-7.95L23.08-9.76L26.14-14.22L30.38-14.22L25.58-7.93L30.38 0L26.32 0Z"></path></g></g></svg></svg></g></g></svg>